<svg id="Calque_1" data-name="Calque 1" xmlns="http://www.w3.org/2000/svg" viewBox="0 0 28 20"><defs><style>.cls-1{fill:#056936;}.cls-2{fill:#fdfeff;}</style></defs><title>ic_flag_ar</title><path class="cls-1" d="M420,93.2a3,3,0,0,0-3,3v14a3,3,0,0,0,3,3h22a3,3,0,0,0,3-3v-14a3,3,0,0,0-3-3Z" transform="translate(-416.98 -93.2)"/><path class="cls-2" d="M424.26,99.12s0,0,.08.06.14.87.29.83,0,.08.16-.57.39-.5.39-.5a1.47,1.47,0,0,1,.12.88s0,.26.15.23,0-.69,0-.72-.23-.85-.05-.9.29.08.31.6.06.91.21.85-.17-.42-.15-.76.1-.35.1-.35.2-.07.31.4,0,.49,0,.49a2.2,2.2,0,0,0,.27.27c.09.06.26,0,.14-.31s-.35-.71-.16-.85.38.18.44.3.05.21-.05.17.27.65,0,1-.49.2-.49.2-.28-.27-.39-.18,0,.9,0,.9.09.7-.28.82l0-1.19s0-.14-.18-.16-.35-.07-.35-.31,0-.71,0-.71-.1-.26-.15.06-.07.87-.3.82S424.23,99.93,424.26,99.12Z" transform="translate(-416.98 -93.2)"/><path class="cls-2" d="M424.61,98.31c-.11,0,0,.17.05.32a.56.56,0,0,1,.06.38c0,.08.11,0,.15-.14S424.86,98.27,424.61,98.31Z" transform="translate(-416.98 -93.2)"/><path class="cls-2" d="M426,98.37c.08,0,.1.16.14.16s0-.16.1-.16,0,.15.1.15,0-.16.11-.15.11.44-.22.42S425.88,98.38,426,98.37Z" transform="translate(-416.98 -93.2)"/><path class="cls-2" d="M430.69,100.37c.08,0,.1.16.14.16s0-.16.1-.16,0,.15.09.15,0-.16.12-.15.11.43-.22.41S430.61,100.38,430.69,100.37Z" transform="translate(-416.98 -93.2)"/><path class="cls-2" d="M433.45,99.58c.08,0,.1.16.14.16s0-.16.1-.16,0,.15.09.15,0-.16.12-.15.11.43-.22.41S433.37,99.59,433.45,99.58Z" transform="translate(-416.98 -93.2)"/><path class="cls-2" d="M425.4,101.4a.88.88,0,0,0-.19.85c.1.6.83.51.83.51a1.29,1.29,0,0,0,.86-.68c.28-.58.11-.67.28-.68s-.07.69-.09.73-.44.85-1.07.82-.73-.12-.83-.42,0-.59-.11-.59-.19.47-.16.67a.83.83,0,0,0,.94.81,1.8,1.8,0,0,0,1.57-1.08,2.17,2.17,0,0,0,0-1s0-.07.16,0,.24-.12.46-.15.15.09.3.07a.38.38,0,0,0,.35-.39c0-.29,0-.43,0-.43a.16.16,0,0,0-.16,0c-.05.07,0,.29-.09.31s-.15-.22-.26-.24-.26.34-.4.36,0-.31-.18-.33-.14.17-.18.09-.19-1.42-.19-1.42h.25l-.27-.66s-.09-.24-.24-.18-.15.37-.14.42.25,1.63.25,1.63.08.37,0,.41-.22-.26-.41-.28-.62.12-.62.5.19.5.31.51.39-.23.43-.19a1,1,0,0,1-.76.83c-.53.06-.59-.34-.6-.57S425.48,101.33,425.4,101.4Z" transform="translate(-416.98 -93.2)"/><path class="cls-2" d="M427.61,99.68h.47l.73-.72-.23-.17s-.16-.11-.1-.17.18.13.18.13a.09.09,0,0,0,.13-.07c0-.13,0-.28-.25-.27s-.27.19-.15.38l0,0c.14.2.07.09.07.09Z" transform="translate(-416.98 -93.2)"/><path class="cls-2" d="M428.45,99.58c.06,0-.05.25,0,.3s.25-.07.29,0-.17.33-.3.3-.26-.15-.23-.28S428.27,99.67,428.45,99.58Z" transform="translate(-416.98 -93.2)"/><path class="cls-2" d="M429,98.74c0-.06.16,0,.19.31s.07.64.21.63.24-.68.31-.8.2-.28.31-.27.18.53.17.79a.37.37,0,0,0,.32.41c.14,0,.34-.33.31-.6s-.17-.56-.12-.69.08-.32.19-.33.27.3.25.57-.09,1,.27,1,0-.6-.11-.94a.35.35,0,0,1,.22-.5.64.64,0,0,1,.42.43c.08.27,0,.12-.12.12s-.06.07,0,.27.06.35.15.4.23.1.29,0,.2-.12.15,0-.11.42-.24.45-.16-.12-.11-.2-.09-.07-.15,0-.14.34-.44.35-.28-.33-.46-.31-.4.35-.62.37a.45.45,0,0,1-.46-.32c0-.16.06-.58,0-.61s-.17.78-.43.77-.49-.35-.52-.58A4.27,4.27,0,0,1,429,98.74Z" transform="translate(-416.98 -93.2)"/><path class="cls-2" d="M429.53,98.19c.08,0-.08.18-.11.23s-.08.08,0,.15.13,0,.17.05-.08.19-.18.17a.24.24,0,0,1-.16-.3A.62.62,0,0,1,429.53,98.19Z" transform="translate(-416.98 -93.2)"/><path class="cls-2" d="M430.28,98.49c0,.11-.06.34,0,.39s.15-.08.2-.25.12-.37,0-.4S430.28,98.49,430.28,98.49Z" transform="translate(-416.98 -93.2)"/><path class="cls-2" d="M428,101.51c-.08,0,0,.2.07.29s0,.38.05.39a.28.28,0,0,0,.16-.26C428.27,101.78,428.22,101.52,428,101.51Z" transform="translate(-416.98 -93.2)"/><path class="cls-2" d="M432.94,101.56s-1.38,0-1.38,0-.15,0-.14,0,.46-.11.62-.21.39-.31.38-.51-.11-.59-.42-.6-.52.29-.5.78a2.92,2.92,0,0,0-.69.22c-.13.1-.4.23-.43.37s-.08.08-.08.08-.07-.55-.1-.69a2.78,2.78,0,0,0-.17-.47c0-.08-.12-.37-.25-.29s-.15.35,0,.69a2.19,2.19,0,0,1,.2,1,1.33,1.33,0,0,1-.36.64c-.17.16-.42.4-.56.4s-.42,0-.37-.19.47-.41.58-.55a1.22,1.22,0,0,0,.3-.68,1.16,1.16,0,0,0-.16-.59s0-.08.09,0,.13,0,.07-.12-.24-.48-.43-.37a.38.38,0,0,0-.15.48c0,.15.31.28.3.49a1,1,0,0,1-.46.67l-.23.16s.1-.38,0-.37a1.92,1.92,0,0,0-.24.48,5.56,5.56,0,0,1-.91.63s-.48.33-.45.4a2.49,2.49,0,0,0,.89-.23c.12-.07.37-.2.4-.17s.22.52.57.49a2.06,2.06,0,0,0,1-.66c.11-.17.2-.27.26-.26s.38.4.5.49,1,.34,1.07.15-.26-.33-.31-.37-.22-.08-.19-.19.25-.28.67-.29a2.11,2.11,0,0,0,.77-.16c.07,0,.08-.22.15-.31S433,101.59,432.94,101.56Zm-1.12-.9c.12,0,.23.17.2.23s-.16,0-.2-.1S431.75,100.66,431.82,100.66Zm-.53,1.38c-.17.16-.32.18-.37.28s.06.35-.07.34-.2-.14-.31-.27a.62.62,0,0,1-.12-.5c.05-.12.17,0,.41,0S431.36,102,431.29,102Z" transform="translate(-416.98 -93.2)"/><path class="cls-2" d="M424.83,101a2.48,2.48,0,0,0-.53.55c0,.09.11,0,.26,0s.76-.36.76-.36.23-.06.21-.16S425.26,100.69,424.83,101Z" transform="translate(-416.98 -93.2)"/><path class="cls-2" d="M424.37,102.12s0,.23,0,.38-.06.43,0,.47.24-.2.28-.14,0,.57-.23.55-.34-.29-.28-.53S424.25,102.14,424.37,102.12Z" transform="translate(-416.98 -93.2)"/><path class="cls-2" d="M431.94,102.85c0,.07.19,0,.23.06s-.07.18,0,.24.31,0,.41-.06.29-.07.26-.15-.14-.1-.21-.09-.11.12-.19.11-.14,0-.1-.11.05-.19,0-.23S432,102.72,431.94,102.85Z" transform="translate(-416.98 -93.2)"/><path class="cls-2" d="M432.63,98.75l-.36-.33s-.21-.28-.3-.13a.73.73,0,0,0,.1.67l.91,1.22v2.67a.48.48,0,0,0,.37-.37,9.42,9.42,0,0,0,0-1.7l.82,1.5.05-.66-.93-1.6-.12-.69s0-.09.05-.1.1.09.1,0a7.22,7.22,0,0,0-.37-.78s-.08-.22-.18-.16S432.73,98.85,432.63,98.75Z" transform="translate(-416.98 -93.2)"/><path class="cls-2" d="M432.66,99s-.13,0-.05.11.16.22.15.12S432.69,99,432.66,99Z" transform="translate(-416.98 -93.2)"/><path class="cls-2" d="M433.45,98.42c-.08,0-.06.18,0,.24s.21.21.19.34-.09.19,0,.23.16-.14.18-.25a.62.62,0,0,0-.06-.42A.26.26,0,0,0,433.45,98.42Z" transform="translate(-416.98 -93.2)"/><path class="cls-2" d="M433.68,98.93" transform="translate(-416.98 -93.2)"/><path class="cls-2" d="M434.18,98.36s.37.59.37.63.09.11,0,.17a.26.26,0,0,0-.13.2c0,.09.17,1.27.18,1.49s0,1.25,0,1.44a1.89,1.89,0,0,1-.48.88c-.23.23-.74.47-.92.12,0,0-.07,0,.2-.16a7,7,0,0,0,1-.77l-.09-1.46s-.18-1.56-.19-1.66A2.79,2.79,0,0,1,434.18,98.36Z" transform="translate(-416.98 -93.2)"/><path class="cls-2" d="M435.09,99.34a.24.24,0,0,1,.13-.21c.09-.06,0-.13,0-.17s-.36-.67-.39-.62a2.8,2.8,0,0,0-.09.88s.15.78.23,1.56.14,1.89.14,1.89a.47.47,0,0,0,.27-.4c0-.31-.23-2.54-.23-2.54Z" transform="translate(-416.98 -93.2)"/><path class="cls-2" d="M435.58,99.87c-.08.06,0,.21.1.4a1,1,0,0,0,.4.34,2.2,2.2,0,0,0,0-.43c0-.14,0-.21.07-.18s.15,0,.16,0a1.1,1.1,0,0,0-.09-.29s-.14-.17-.2-.07,0,.28-.12.36S435.71,99.76,435.58,99.87Z" transform="translate(-416.98 -93.2)"/><path class="cls-2" d="M436.47,100.61s-.68.48-.69.5-.08.11-.07.19.1.18.15.11.67-.51.67-.51a.28.28,0,0,0,.05-.12S436.54,100.55,436.47,100.61Z" transform="translate(-416.98 -93.2)"/><path class="cls-2" d="M436.37,101.14c-.08,0-.06.26,0,.34a1.34,1.34,0,0,1,.09.26.92.92,0,0,0,0,.29s.18,0,.18-.45S436.37,101.14,436.37,101.14Z" transform="translate(-416.98 -93.2)"/><path class="cls-2" d="M437.8,98.83c-.08,0-.11.19,0,.38s.15.23.11.37a.49.49,0,0,0,0,.21s.19-.09.15-.48S437.88,98.82,437.8,98.83Z" transform="translate(-416.98 -93.2)"/><path class="cls-2" d="M434.92,102s0,.53.07.64.05.3.23.3.38-.47.42-.57.17-.47.3-.47.38.49.64.5.19-.38.19-.57-.1-1.91-.1-1.91l-.77-1a2.93,2.93,0,0,1,0-.59,4.36,4.36,0,0,1,.55.49s0,0-.06.07,0,.07,0,.09a.81.81,0,0,0,.15.13l0-.64s0-.14.08-.14a4.08,4.08,0,0,1,.5.75s0,.13-.07.1-.1,0-.12,0,.05.55.05.55l.44.62-.27-1.8s0-.18.18-.19.26.33.32.54.13.31.08.36-.11,0-.12,0,.22,1.71.22,1.71l.62.9,0,.62-.5-.77v.46a2.43,2.43,0,0,1-.31.41,8.28,8.28,0,0,1-.08-1.53,2.51,2.51,0,0,0-.36-.48s0,1.43,0,1.43v.32s-.14.56-.48.56-.47-.44-.67-.41-.26,1-.57,1a.81.81,0,0,1-.6-.54C434.74,102.74,434.73,102,434.92,102Z" transform="translate(-416.98 -93.2)"/><path class="cls-2" d="M437.31,102.8s-.21,0-.21.09.15.13.16.18-.21.24-.16.31.22,0,.29-.09.21-.05.2-.12-.2-.06-.2-.12.09-.15.08-.2S437.31,102.8,437.31,102.8Z" transform="translate(-416.98 -93.2)"/><path class="cls-2" d="M438.46,102.49a2.07,2.07,0,0,1-.4.53c-.14.07-.6.27-.56.36a.94.94,0,0,0,.88-.07,1.43,1.43,0,0,0,.39-.74s0-1.21,0-1.48-.15-1.57-.2-1.75,0-.2.05-.21.17,0,.16-.06a5.61,5.61,0,0,0-.37-.59s-.08-.12-.12-.12-.12.16-.11.4.27,2.6.27,2.6A6.85,6.85,0,0,1,438.46,102.49Z" transform="translate(-416.98 -93.2)"/><path class="cls-2" d="M436.78,107.48c-.09-.1-.36,0-.36,0h-1.1l.06-.17c0-.09,0-.12-.11-.16s0-.13-.13-.13-.12.13-.14.2.14.26.14.26l-8.92-.1a1.63,1.63,0,0,0,1,.52h7.82a2,2,0,0,0,0,.27c0,.09.1.31.24.31s.09-.18.09-.18h1.08s0,.15.21.18.36-.38.36-.5A1.21,1.21,0,0,0,436.78,107.48Zm-.5.65a1.2,1.2,0,0,1-.19,0s0-.09-.17-.1-.15.1-.15.1h-.33c-.17,0-.22-.2-.14-.2h1s.12,0,.12.1S436.32,108.14,436.28,108.13Z" transform="translate(-416.98 -93.2)"/></svg>